<?xml version="1.0" encoding="UTF-8" standalone="no"?>
<!DOCTYPE svg PUBLIC "-//W3C//DTD SVG 1.1//EN"
 "http://www.w3.org/Graphics/SVG/1.1/DTD/svg11.dtd">
<!-- Generated by graphviz version 12.1.0 (20240811.2233)
 -->
<!-- Pages: 1 -->
<svg width="1933pt" height="387pt"
 viewBox="0.00 0.00 1933.00 386.50" xmlns="http://www.w3.org/2000/svg" xmlns:xlink="http://www.w3.org/1999/xlink">
<g id="graph0" class="graph" transform="scale(1 1) rotate(0) translate(4 382.5)">
<polygon fill="white" stroke="none" points="-4,4 -4,-382.5 1929,-382.5 1929,4 -4,4"/>
<!-- 140084139998288 -->
<g id="node1" class="node">
<title>140084139998288</title>
<polygon fill="none" stroke="black" points="202,-93.5 202,-167 266.75,-167 266.75,-93.5 202,-93.5"/>
<text text-anchor="middle" x="234.38" y="-149.7" font-family="Times,serif" font-size="14.00">x2w2</text>
<polyline fill="none" stroke="black" points="202,-142.5 266.75,-142.5"/>
<text text-anchor="middle" x="234.38" y="-125.2" font-family="Times,serif" font-size="14.00">data: 0</text>
<polyline fill="none" stroke="black" points="202,-118 266.75,-118"/>
<text text-anchor="middle" x="234.38" y="-100.7" font-family="Times,serif" font-size="14.00">grad: 6.0</text>
</g>
<!-- 140084139995504+ -->
<g id="node10" class="node">
<title>140084139995504+</title>
<ellipse fill="none" stroke="black" cx="329.75" cy="-176.25" rx="27" ry="18"/>
<text text-anchor="middle" x="329.75" y="-171.2" font-family="Times,serif" font-size="14.00">+</text>
</g>
<!-- 140084139998288&#45;&gt;140084139995504+ -->
<g id="edge22" class="edge">
<title>140084139998288&#45;&gt;140084139995504+</title>
<path fill="none" stroke="black" d="M267.25,-145.95C276.95,-150.73 287.6,-155.98 297.27,-160.74"/>
<polygon fill="black" stroke="black" points="295.42,-163.73 305.94,-165.01 298.51,-157.45 295.42,-163.73"/>
</g>
<!-- 140084139998288* -->
<g id="node2" class="node">
<title>140084139998288*</title>
<ellipse fill="none" stroke="black" cx="139" cy="-130.25" rx="27" ry="18"/>
<text text-anchor="middle" x="139" y="-125.2" font-family="Times,serif" font-size="14.00">*</text>
</g>
<!-- 140084139998288*&#45;&gt;140084139998288 -->
<g id="edge1" class="edge">
<title>140084139998288*&#45;&gt;140084139998288</title>
<path fill="none" stroke="black" d="M166.01,-130.25C173.49,-130.25 181.86,-130.25 190.09,-130.25"/>
<polygon fill="black" stroke="black" points="190.01,-133.75 200.01,-130.25 190.01,-126.75 190.01,-133.75"/>
</g>
<!-- 140084139998384 -->
<g id="node3" class="node">
<title>140084139998384</title>
<polygon fill="none" stroke="black" points="610.5,-301.5 610.5,-375 776.5,-375 776.5,-301.5 610.5,-301.5"/>
<text text-anchor="middle" x="693.5" y="-357.7" font-family="Times,serif" font-size="14.00"> </text>
<polyline fill="none" stroke="black" points="610.5,-350.5 776.5,-350.5"/>
<text text-anchor="middle" x="693.5" y="-333.2" font-family="Times,serif" font-size="14.00">data: 2</text>
<polyline fill="none" stroke="black" points="610.5,-326 776.5,-326"/>
<text text-anchor="middle" x="693.5" y="-308.7" font-family="Times,serif" font-size="14.00">grad: 0.8814000000000002</text>
</g>
<!-- 140084059358512* -->
<g id="node8" class="node">
<title>140084059358512*</title>
<ellipse fill="none" stroke="black" cx="839.5" cy="-338.25" rx="27" ry="18"/>
<text text-anchor="middle" x="839.5" y="-333.2" font-family="Times,serif" font-size="14.00">*</text>
</g>
<!-- 140084139998384&#45;&gt;140084059358512* -->
<g id="edge23" class="edge">
<title>140084139998384&#45;&gt;140084059358512*</title>
<path fill="none" stroke="black" d="M776.6,-338.25C785.05,-338.25 793.32,-338.25 800.91,-338.25"/>
<polygon fill="black" stroke="black" points="800.72,-341.75 810.72,-338.25 800.72,-334.75 800.72,-341.75"/>
</g>
<!-- 140084139997424 -->
<g id="node4" class="node">
<title>140084139997424</title>
<polygon fill="none" stroke="black" points="902.5,-34.5 902.5,-108 1067,-108 1067,-34.5 902.5,-34.5"/>
<text text-anchor="middle" x="984.75" y="-90.7" font-family="Times,serif" font-size="14.00"> </text>
<polyline fill="none" stroke="black" points="902.5,-83.5 1067,-83.5"/>
<text text-anchor="middle" x="984.75" y="-66.2" font-family="Times,serif" font-size="14.00">data: 1.7628000000000004</text>
<polyline fill="none" stroke="black" points="902.5,-59 1067,-59"/>
<text text-anchor="middle" x="984.75" y="-41.7" font-family="Times,serif" font-size="14.00">grad: 1.0</text>
</g>
<!-- 140084139997568exp -->
<g id="node12" class="node">
<title>140084139997568exp</title>
<ellipse fill="none" stroke="black" cx="1130" cy="-65.25" rx="27" ry="18"/>
<text text-anchor="middle" x="1130" y="-60.2" font-family="Times,serif" font-size="14.00">exp</text>
</g>
<!-- 140084139997424&#45;&gt;140084139997568exp -->
<g id="edge30" class="edge">
<title>140084139997424&#45;&gt;140084139997568exp</title>
<path fill="none" stroke="black" d="M1067.42,-67.83C1075.65,-67.48 1083.7,-67.15 1091.12,-66.84"/>
<polygon fill="black" stroke="black" points="1091.21,-70.34 1101.06,-66.42 1090.92,-63.34 1091.21,-70.34"/>
</g>
<!-- 140084139997424* -->
<g id="node5" class="node">
<title>140084139997424*</title>
<ellipse fill="none" stroke="black" cx="839.5" cy="-83.25" rx="27" ry="18"/>
<text text-anchor="middle" x="839.5" y="-78.2" font-family="Times,serif" font-size="14.00">*</text>
</g>
<!-- 140084139997424*&#45;&gt;140084139997424 -->
<g id="edge2" class="edge">
<title>140084139997424*&#45;&gt;140084139997424</title>
<path fill="none" stroke="black" d="M866.77,-81.05C873.99,-80.44 882.24,-79.75 890.96,-79.02"/>
<polygon fill="black" stroke="black" points="891.01,-82.53 900.69,-78.21 890.43,-75.56 891.01,-82.53"/>
</g>
<!-- 140084139997472 -->
<g id="node6" class="node">
<title>140084139997472</title>
<polygon fill="none" stroke="black" points="610.5,-46.5 610.5,-120 776.5,-120 776.5,-46.5 610.5,-46.5"/>
<text text-anchor="middle" x="693.5" y="-102.7" font-family="Times,serif" font-size="14.00"> </text>
<polyline fill="none" stroke="black" points="610.5,-95.5 776.5,-95.5"/>
<text text-anchor="middle" x="693.5" y="-78.2" font-family="Times,serif" font-size="14.00">data: 2</text>
<polyline fill="none" stroke="black" points="610.5,-71 776.5,-71"/>
<text text-anchor="middle" x="693.5" y="-53.7" font-family="Times,serif" font-size="14.00">grad: 0.8814000000000002</text>
</g>
<!-- 140084139997472&#45;&gt;140084139997424* -->
<g id="edge18" class="edge">
<title>140084139997472&#45;&gt;140084139997424*</title>
<path fill="none" stroke="black" d="M776.6,-83.25C785.05,-83.25 793.32,-83.25 800.91,-83.25"/>
<polygon fill="black" stroke="black" points="800.72,-86.75 810.72,-83.25 800.72,-79.75 800.72,-86.75"/>
</g>
<!-- 140084059358512 -->
<g id="node7" class="node">
<title>140084059358512</title>
<polygon fill="none" stroke="black" points="902.5,-302.5 902.5,-376 1067,-376 1067,-302.5 902.5,-302.5"/>
<text text-anchor="middle" x="984.75" y="-358.7" font-family="Times,serif" font-size="14.00"> </text>
<polyline fill="none" stroke="black" points="902.5,-351.5 1067,-351.5"/>
<text text-anchor="middle" x="984.75" y="-334.2" font-family="Times,serif" font-size="14.00">data: 1.7628000000000004</text>
<polyline fill="none" stroke="black" points="902.5,-327 1067,-327"/>
<text text-anchor="middle" x="984.75" y="-309.7" font-family="Times,serif" font-size="14.00">grad: 1.0</text>
</g>
<!-- 140084059358656exp -->
<g id="node14" class="node">
<title>140084059358656exp</title>
<ellipse fill="none" stroke="black" cx="1130" cy="-340.25" rx="27" ry="18"/>
<text text-anchor="middle" x="1130" y="-335.2" font-family="Times,serif" font-size="14.00">exp</text>
</g>
<!-- 140084059358512&#45;&gt;140084059358656exp -->
<g id="edge26" class="edge">
<title>140084059358512&#45;&gt;140084059358656exp</title>
<path fill="none" stroke="black" d="M1067.42,-339.82C1075.65,-339.88 1083.7,-339.93 1091.12,-339.99"/>
<polygon fill="black" stroke="black" points="1091.03,-343.48 1101.06,-340.05 1091.08,-336.49 1091.03,-343.48"/>
</g>
<!-- 140084059358512*&#45;&gt;140084059358512 -->
<g id="edge3" class="edge">
<title>140084059358512*&#45;&gt;140084059358512</title>
<path fill="none" stroke="black" d="M866.77,-338.43C873.99,-338.48 882.24,-338.54 890.96,-338.6"/>
<polygon fill="black" stroke="black" points="890.66,-342.1 900.68,-338.67 890.71,-335.1 890.66,-342.1"/>
</g>
<!-- 140084139995504 -->
<g id="node9" class="node">
<title>140084139995504</title>
<polygon fill="none" stroke="black" points="392.75,-139.5 392.75,-213 484.5,-213 484.5,-139.5 392.75,-139.5"/>
<text text-anchor="middle" x="438.62" y="-195.7" font-family="Times,serif" font-size="14.00">x1w1 + x2w2</text>
<polyline fill="none" stroke="black" points="392.75,-188.5 484.5,-188.5"/>
<text text-anchor="middle" x="438.62" y="-171.2" font-family="Times,serif" font-size="14.00">data: &#45;6</text>
<polyline fill="none" stroke="black" points="392.75,-164 484.5,-164"/>
<text text-anchor="middle" x="438.62" y="-146.7" font-family="Times,serif" font-size="14.00">grad: 4.0</text>
</g>
<!-- 140084139995792+ -->
<g id="node20" class="node">
<title>140084139995792+</title>
<ellipse fill="none" stroke="black" cx="547.5" cy="-222.25" rx="27" ry="18"/>
<text text-anchor="middle" x="547.5" y="-217.2" font-family="Times,serif" font-size="14.00">+</text>
</g>
<!-- 140084139995504&#45;&gt;140084139995792+ -->
<g id="edge15" class="edge">
<title>140084139995504&#45;&gt;140084139995792+</title>
<path fill="none" stroke="black" d="M484.95,-195.76C494.58,-199.9 504.56,-204.2 513.62,-208.1"/>
<polygon fill="black" stroke="black" points="512.16,-211.28 522.73,-212.02 514.93,-204.85 512.16,-211.28"/>
</g>
<!-- 140084139995504+&#45;&gt;140084139995504 -->
<g id="edge4" class="edge">
<title>140084139995504+&#45;&gt;140084139995504</title>
<path fill="none" stroke="black" d="M357.17,-176.25C364.48,-176.25 372.7,-176.25 381.03,-176.25"/>
<polygon fill="black" stroke="black" points="380.86,-179.75 390.86,-176.25 380.86,-172.75 380.86,-179.75"/>
</g>
<!-- 140084139997568 -->
<g id="node11" class="node">
<title>140084139997568</title>
<polygon fill="none" stroke="black" points="1193,-25.5 1193,-99 1350.75,-99 1350.75,-25.5 1193,-25.5"/>
<text text-anchor="middle" x="1271.88" y="-81.7" font-family="Times,serif" font-size="14.00"> </text>
<polyline fill="none" stroke="black" points="1193,-74.5 1350.75,-74.5"/>
<text text-anchor="middle" x="1271.88" y="-57.2" font-family="Times,serif" font-size="14.00">data: 5.828735025142169</text>
<polyline fill="none" stroke="black" points="1193,-50 1350.75,-50"/>
<text text-anchor="middle" x="1271.88" y="-32.7" font-family="Times,serif" font-size="14.00">grad: 1.0</text>
</g>
<!-- 140084139997664&#45; -->
<g id="node16" class="node">
<title>140084139997664&#45;</title>
<ellipse fill="none" stroke="black" cx="1413.75" cy="-155.25" rx="27" ry="18"/>
<text text-anchor="middle" x="1413.75" y="-150.2" font-family="Times,serif" font-size="14.00">&#45;</text>
</g>
<!-- 140084139997568&#45;&gt;140084139997664&#45; -->
<g id="edge12" class="edge">
<title>140084139997568&#45;&gt;140084139997664&#45;</title>
<path fill="none" stroke="black" d="M1335.69,-99.44C1340.82,-102.7 1345.9,-106 1350.75,-109.25 1362.72,-117.27 1375.57,-126.67 1386.45,-134.87"/>
<polygon fill="black" stroke="black" points="1384.15,-137.52 1394.23,-140.79 1388.39,-131.95 1384.15,-137.52"/>
</g>
<!-- 140084139997568exp&#45;&gt;140084139997568 -->
<g id="edge5" class="edge">
<title>140084139997568exp&#45;&gt;140084139997568</title>
<path fill="none" stroke="black" d="M1157.31,-64.69C1164.46,-64.53 1172.63,-64.36 1181.23,-64.17"/>
<polygon fill="black" stroke="black" points="1181.3,-67.67 1191.22,-63.96 1181.15,-60.67 1181.3,-67.67"/>
</g>
<!-- 140084059358656 -->
<g id="node13" class="node">
<title>140084059358656</title>
<polygon fill="none" stroke="black" points="1193,-304.5 1193,-378 1350.75,-378 1350.75,-304.5 1193,-304.5"/>
<text text-anchor="middle" x="1271.88" y="-360.7" font-family="Times,serif" font-size="14.00"> </text>
<polyline fill="none" stroke="black" points="1193,-353.5 1350.75,-353.5"/>
<text text-anchor="middle" x="1271.88" y="-336.2" font-family="Times,serif" font-size="14.00">data: 5.828735025142169</text>
<polyline fill="none" stroke="black" points="1193,-329 1350.75,-329"/>
<text text-anchor="middle" x="1271.88" y="-311.7" font-family="Times,serif" font-size="14.00">grad: 1.0</text>
</g>
<!-- 140084059361104+ -->
<g id="node28" class="node">
<title>140084059361104+</title>
<ellipse fill="none" stroke="black" cx="1413.75" cy="-248.25" rx="27" ry="18"/>
<text text-anchor="middle" x="1413.75" y="-243.2" font-family="Times,serif" font-size="14.00">+</text>
</g>
<!-- 140084059358656&#45;&gt;140084059361104+ -->
<g id="edge17" class="edge">
<title>140084059358656&#45;&gt;140084059361104+</title>
<path fill="none" stroke="black" d="M1335.69,-304.06C1340.82,-300.8 1345.9,-297.5 1350.75,-294.25 1362.72,-286.23 1375.57,-276.83 1386.45,-268.63"/>
<polygon fill="black" stroke="black" points="1388.39,-271.55 1394.23,-262.71 1384.15,-265.98 1388.39,-271.55"/>
</g>
<!-- 140084059358656exp&#45;&gt;140084059358656 -->
<g id="edge6" class="edge">
<title>140084059358656exp&#45;&gt;140084059358656</title>
<path fill="none" stroke="black" d="M1157.31,-340.44C1164.46,-340.49 1172.63,-340.55 1181.23,-340.61"/>
<polygon fill="black" stroke="black" points="1181.2,-344.11 1191.22,-340.68 1181.25,-337.11 1181.2,-344.11"/>
</g>
<!-- 140084139997664 -->
<g id="node15" class="node">
<title>140084139997664</title>
<polygon fill="none" stroke="black" points="1476.75,-118.5 1476.75,-192 1634.5,-192 1634.5,-118.5 1476.75,-118.5"/>
<text text-anchor="middle" x="1555.62" y="-174.7" font-family="Times,serif" font-size="14.00"> </text>
<polyline fill="none" stroke="black" points="1476.75,-167.5 1634.5,-167.5"/>
<text text-anchor="middle" x="1555.62" y="-150.2" font-family="Times,serif" font-size="14.00">data: 4.828735025142169</text>
<polyline fill="none" stroke="black" points="1476.75,-143 1634.5,-143"/>
<text text-anchor="middle" x="1555.62" y="-125.7" font-family="Times,serif" font-size="14.00">grad: 1.0</text>
</g>
<!-- 140084059361056/ -->
<g id="node24" class="node">
<title>140084059361056/</title>
<ellipse fill="none" stroke="black" cx="1697.5" cy="-201.25" rx="27" ry="18"/>
<text text-anchor="middle" x="1697.5" y="-196.2" font-family="Times,serif" font-size="14.00">/</text>
</g>
<!-- 140084139997664&#45;&gt;140084059361056/ -->
<g id="edge19" class="edge">
<title>140084139997664&#45;&gt;140084059361056/</title>
<path fill="none" stroke="black" d="M1634.74,-180.94C1644.29,-184.08 1653.64,-187.15 1662.05,-189.92"/>
<polygon fill="black" stroke="black" points="1660.85,-193.21 1671.44,-193.01 1663.03,-186.56 1660.85,-193.21"/>
</g>
<!-- 140084139997664&#45;&#45;&gt;140084139997664 -->
<g id="edge7" class="edge">
<title>140084139997664&#45;&#45;&gt;140084139997664</title>
<path fill="none" stroke="black" d="M1441.06,-155.25C1448.21,-155.25 1456.38,-155.25 1464.98,-155.25"/>
<polygon fill="black" stroke="black" points="1464.97,-158.75 1474.97,-155.25 1464.97,-151.75 1464.97,-158.75"/>
</g>
<!-- 140084139995648 -->
<g id="node17" class="node">
<title>140084139995648</title>
<polygon fill="none" stroke="black" points="396.88,-232.5 396.88,-306 480.38,-306 480.38,-232.5 396.88,-232.5"/>
<text text-anchor="middle" x="438.62" y="-288.7" font-family="Times,serif" font-size="14.00">b</text>
<polyline fill="none" stroke="black" points="396.88,-281.5 480.38,-281.5"/>
<text text-anchor="middle" x="438.62" y="-264.2" font-family="Times,serif" font-size="14.00">data: 6.8814</text>
<polyline fill="none" stroke="black" points="396.88,-257 480.38,-257"/>
<text text-anchor="middle" x="438.62" y="-239.7" font-family="Times,serif" font-size="14.00">grad: 4.0</text>
</g>
<!-- 140084139995648&#45;&gt;140084139995792+ -->
<g id="edge27" class="edge">
<title>140084139995648&#45;&gt;140084139995792+</title>
<path fill="none" stroke="black" d="M480.64,-251.21C491.65,-246.37 503.4,-241.2 513.89,-236.59"/>
<polygon fill="black" stroke="black" points="515.14,-239.86 522.89,-232.63 512.33,-233.46 515.14,-239.86"/>
</g>
<!-- 140084139997712 -->
<g id="node18" class="node">
<title>140084139997712</title>
<polygon fill="none" stroke="black" points="1239.5,-118.5 1239.5,-192 1304.25,-192 1304.25,-118.5 1239.5,-118.5"/>
<text text-anchor="middle" x="1271.88" y="-174.7" font-family="Times,serif" font-size="14.00"> </text>
<polyline fill="none" stroke="black" points="1239.5,-167.5 1304.25,-167.5"/>
<text text-anchor="middle" x="1271.88" y="-150.2" font-family="Times,serif" font-size="14.00">data: 1</text>
<polyline fill="none" stroke="black" points="1239.5,-143 1304.25,-143"/>
<text text-anchor="middle" x="1271.88" y="-125.7" font-family="Times,serif" font-size="14.00">grad: 1.0</text>
</g>
<!-- 140084139997712&#45;&gt;140084139997664&#45; -->
<g id="edge29" class="edge">
<title>140084139997712&#45;&gt;140084139997664&#45;</title>
<path fill="none" stroke="black" d="M1304.61,-155.25C1325.52,-155.25 1353,-155.25 1375.02,-155.25"/>
<polygon fill="black" stroke="black" points="1374.79,-158.75 1384.79,-155.25 1374.79,-151.75 1374.79,-158.75"/>
</g>
<!-- 140084139995792 -->
<g id="node19" class="node">
<title>140084139995792</title>
<polygon fill="none" stroke="black" points="611.25,-185.5 611.25,-259 775.75,-259 775.75,-185.5 611.25,-185.5"/>
<text text-anchor="middle" x="693.5" y="-241.7" font-family="Times,serif" font-size="14.00">logit</text>
<polyline fill="none" stroke="black" points="611.25,-234.5 775.75,-234.5"/>
<text text-anchor="middle" x="693.5" y="-217.2" font-family="Times,serif" font-size="14.00">data: 0.8814000000000002</text>
<polyline fill="none" stroke="black" points="611.25,-210 775.75,-210"/>
<text text-anchor="middle" x="693.5" y="-192.7" font-family="Times,serif" font-size="14.00">grad: 2.0</text>
</g>
<!-- 140084139995792&#45;&gt;140084139997424* -->
<g id="edge20" class="edge">
<title>140084139995792&#45;&gt;140084139997424*</title>
<path fill="none" stroke="black" d="M733.09,-185C759.27,-159.73 793.03,-127.14 815.2,-105.75"/>
<polygon fill="black" stroke="black" points="817.51,-108.37 822.28,-98.91 812.65,-103.34 817.51,-108.37"/>
</g>
<!-- 140084139995792&#45;&gt;140084059358512* -->
<g id="edge25" class="edge">
<title>140084139995792&#45;&gt;140084059358512*</title>
<path fill="none" stroke="black" d="M740.46,-259.27C764.33,-278.5 792.62,-301.29 812.66,-317.44"/>
<polygon fill="black" stroke="black" points="810.35,-320.07 820.33,-323.62 814.74,-314.62 810.35,-320.07"/>
</g>
<!-- 140084139995792+&#45;&gt;140084139995792 -->
<g id="edge8" class="edge">
<title>140084139995792+&#45;&gt;140084139995792</title>
<path fill="none" stroke="black" d="M574.91,-222.25C582.22,-222.25 590.59,-222.25 599.43,-222.25"/>
<polygon fill="black" stroke="black" points="599.31,-225.75 609.31,-222.25 599.31,-218.75 599.31,-225.75"/>
</g>
<!-- 140084142608016 -->
<g id="node21" class="node">
<title>140084142608016</title>
<polygon fill="none" stroke="black" points="2.25,-279.5 2.25,-353 73.75,-353 73.75,-279.5 2.25,-279.5"/>
<text text-anchor="middle" x="38" y="-335.7" font-family="Times,serif" font-size="14.00">w1</text>
<polyline fill="none" stroke="black" points="2.25,-328.5 73.75,-328.5"/>
<text text-anchor="middle" x="38" y="-311.2" font-family="Times,serif" font-size="14.00">data: &#45;3</text>
<polyline fill="none" stroke="black" points="2.25,-304 73.75,-304"/>
<text text-anchor="middle" x="38" y="-286.7" font-family="Times,serif" font-size="14.00">grad: 12.0</text>
</g>
<!-- 140084059257648* -->
<g id="node26" class="node">
<title>140084059257648*</title>
<ellipse fill="none" stroke="black" cx="139" cy="-223.25" rx="27" ry="18"/>
<text text-anchor="middle" x="139" y="-218.2" font-family="Times,serif" font-size="14.00">*</text>
</g>
<!-- 140084142608016&#45;&gt;140084059257648* -->
<g id="edge13" class="edge">
<title>140084142608016&#45;&gt;140084059257648*</title>
<path fill="none" stroke="black" d="M74.18,-283.2C87.51,-270.68 102.35,-256.74 114.37,-245.45"/>
<polygon fill="black" stroke="black" points="116.56,-248.19 121.45,-238.8 111.77,-243.09 116.56,-248.19"/>
</g>
<!-- 140084059257552 -->
<g id="node22" class="node">
<title>140084059257552</title>
<polygon fill="none" stroke="black" points="5.62,-93.5 5.62,-167 70.38,-167 70.38,-93.5 5.62,-93.5"/>
<text text-anchor="middle" x="38" y="-149.7" font-family="Times,serif" font-size="14.00">w2</text>
<polyline fill="none" stroke="black" points="5.62,-142.5 70.38,-142.5"/>
<text text-anchor="middle" x="38" y="-125.2" font-family="Times,serif" font-size="14.00">data: 1</text>
<polyline fill="none" stroke="black" points="5.62,-118 70.38,-118"/>
<text text-anchor="middle" x="38" y="-100.7" font-family="Times,serif" font-size="14.00">grad: 0.0</text>
</g>
<!-- 140084059257552&#45;&gt;140084139998288* -->
<g id="edge14" class="edge">
<title>140084059257552&#45;&gt;140084139998288*</title>
<path fill="none" stroke="black" d="M70.87,-130.25C80.27,-130.25 90.65,-130.25 100.38,-130.25"/>
<polygon fill="black" stroke="black" points="100.3,-133.75 110.3,-130.25 100.3,-126.75 100.3,-133.75"/>
</g>
<!-- 140084059361056 -->
<g id="node23" class="node">
<title>140084059361056</title>
<polygon fill="none" stroke="black" points="1760.5,-164.5 1760.5,-238 1925,-238 1925,-164.5 1760.5,-164.5"/>
<text text-anchor="middle" x="1842.75" y="-220.7" font-family="Times,serif" font-size="14.00"> </text>
<polyline fill="none" stroke="black" points="1760.5,-213.5 1925,-213.5"/>
<text text-anchor="middle" x="1842.75" y="-196.2" font-family="Times,serif" font-size="14.00">data: 0.7071199874301227</text>
<polyline fill="none" stroke="black" points="1760.5,-189 1925,-189"/>
<text text-anchor="middle" x="1842.75" y="-171.7" font-family="Times,serif" font-size="14.00">grad: 1.0</text>
</g>
<!-- 140084059361056/&#45;&gt;140084059361056 -->
<g id="edge9" class="edge">
<title>140084059361056/&#45;&gt;140084059361056</title>
<path fill="none" stroke="black" d="M1724.77,-201.25C1731.99,-201.25 1740.24,-201.25 1748.96,-201.25"/>
<polygon fill="black" stroke="black" points="1748.68,-204.75 1758.68,-201.25 1748.68,-197.75 1748.68,-204.75"/>
</g>
<!-- 140084059257648 -->
<g id="node25" class="node">
<title>140084059257648</title>
<polygon fill="none" stroke="black" points="202,-186.5 202,-260 266.75,-260 266.75,-186.5 202,-186.5"/>
<text text-anchor="middle" x="234.38" y="-242.7" font-family="Times,serif" font-size="14.00">x1w1</text>
<polyline fill="none" stroke="black" points="202,-235.5 266.75,-235.5"/>
<text text-anchor="middle" x="234.38" y="-218.2" font-family="Times,serif" font-size="14.00">data: &#45;6</text>
<polyline fill="none" stroke="black" points="202,-211 266.75,-211"/>
<text text-anchor="middle" x="234.38" y="-193.7" font-family="Times,serif" font-size="14.00">grad: 6.0</text>
</g>
<!-- 140084059257648&#45;&gt;140084139995504+ -->
<g id="edge24" class="edge">
<title>140084059257648&#45;&gt;140084139995504+</title>
<path fill="none" stroke="black" d="M267.25,-207.21C277.03,-202.29 287.77,-196.88 297.5,-191.98"/>
<polygon fill="black" stroke="black" points="298.87,-195.21 306.23,-187.59 295.72,-188.96 298.87,-195.21"/>
</g>
<!-- 140084059257648*&#45;&gt;140084059257648 -->
<g id="edge10" class="edge">
<title>140084059257648*&#45;&gt;140084059257648</title>
<path fill="none" stroke="black" d="M166.01,-223.25C173.49,-223.25 181.86,-223.25 190.09,-223.25"/>
<polygon fill="black" stroke="black" points="190.01,-226.75 200.01,-223.25 190.01,-219.75 190.01,-226.75"/>
</g>
<!-- 140084059361104 -->
<g id="node27" class="node">
<title>140084059361104</title>
<polygon fill="none" stroke="black" points="1476.75,-211.5 1476.75,-285 1634.5,-285 1634.5,-211.5 1476.75,-211.5"/>
<text text-anchor="middle" x="1555.62" y="-267.7" font-family="Times,serif" font-size="14.00"> </text>
<polyline fill="none" stroke="black" points="1476.75,-260.5 1634.5,-260.5"/>
<text text-anchor="middle" x="1555.62" y="-243.2" font-family="Times,serif" font-size="14.00">data: 6.828735025142169</text>
<polyline fill="none" stroke="black" points="1476.75,-236 1634.5,-236"/>
<text text-anchor="middle" x="1555.62" y="-218.7" font-family="Times,serif" font-size="14.00">grad: 1.0</text>
</g>
<!-- 140084059361104&#45;&gt;140084059361056/ -->
<g id="edge31" class="edge">
<title>140084059361104&#45;&gt;140084059361056/</title>
<path fill="none" stroke="black" d="M1634.74,-222C1644.29,-218.79 1653.64,-215.65 1662.05,-212.83"/>
<polygon fill="black" stroke="black" points="1663.08,-216.17 1671.44,-209.67 1660.85,-209.54 1663.08,-216.17"/>
</g>
<!-- 140084059361104+&#45;&gt;140084059361104 -->
<g id="edge11" class="edge">
<title>140084059361104+&#45;&gt;140084059361104</title>
<path fill="none" stroke="black" d="M1441.06,-248.25C1448.21,-248.25 1456.38,-248.25 1464.98,-248.25"/>
<polygon fill="black" stroke="black" points="1464.97,-251.75 1474.97,-248.25 1464.97,-244.75 1464.97,-251.75"/>
</g>
<!-- 140084059361152 -->
<g id="node29" class="node">
<title>140084059361152</title>
<polygon fill="none" stroke="black" points="1239.5,-211.5 1239.5,-285 1304.25,-285 1304.25,-211.5 1239.5,-211.5"/>
<text text-anchor="middle" x="1271.88" y="-267.7" font-family="Times,serif" font-size="14.00"> </text>
<polyline fill="none" stroke="black" points="1239.5,-260.5 1304.25,-260.5"/>
<text text-anchor="middle" x="1271.88" y="-243.2" font-family="Times,serif" font-size="14.00">data: 1</text>
<polyline fill="none" stroke="black" points="1239.5,-236 1304.25,-236"/>
<text text-anchor="middle" x="1271.88" y="-218.7" font-family="Times,serif" font-size="14.00">grad: 1.0</text>
</g>
<!-- 140084059361152&#45;&gt;140084059361104+ -->
<g id="edge21" class="edge">
<title>140084059361152&#45;&gt;140084059361104+</title>
<path fill="none" stroke="black" d="M1304.61,-248.25C1325.52,-248.25 1353,-248.25 1375.02,-248.25"/>
<polygon fill="black" stroke="black" points="1374.79,-251.75 1384.79,-248.25 1374.79,-244.75 1374.79,-251.75"/>
</g>
<!-- 140084059257744 -->
<g id="node30" class="node">
<title>140084059257744</title>
<polygon fill="none" stroke="black" points="5.62,-0.5 5.62,-74 70.38,-74 70.38,-0.5 5.62,-0.5"/>
<text text-anchor="middle" x="38" y="-56.7" font-family="Times,serif" font-size="14.00">x2</text>
<polyline fill="none" stroke="black" points="5.62,-49.5 70.38,-49.5"/>
<text text-anchor="middle" x="38" y="-32.2" font-family="Times,serif" font-size="14.00">data: 0</text>
<polyline fill="none" stroke="black" points="5.62,-25 70.38,-25"/>
<text text-anchor="middle" x="38" y="-7.7" font-family="Times,serif" font-size="14.00">grad: 6.0</text>
</g>
<!-- 140084059257744&#45;&gt;140084139998288* -->
<g id="edge16" class="edge">
<title>140084059257744&#45;&gt;140084139998288*</title>
<path fill="none" stroke="black" d="M70.87,-67.19C85.06,-80.52 101.47,-95.93 114.51,-108.19"/>
<polygon fill="black" stroke="black" points="111.76,-110.4 121.44,-114.69 116.55,-105.3 111.76,-110.4"/>
</g>
<!-- 140084143462384 -->
<g id="node31" class="node">
<title>140084143462384</title>
<polygon fill="none" stroke="black" points="0,-186.5 0,-260 76,-260 76,-186.5 0,-186.5"/>
<text text-anchor="middle" x="38" y="-242.7" font-family="Times,serif" font-size="14.00">x1</text>
<polyline fill="none" stroke="black" points="0,-235.5 76,-235.5"/>
<text text-anchor="middle" x="38" y="-218.2" font-family="Times,serif" font-size="14.00">data: 2</text>
<polyline fill="none" stroke="black" points="0,-211 76,-211"/>
<text text-anchor="middle" x="38" y="-193.7" font-family="Times,serif" font-size="14.00">grad: &#45;18.0</text>
</g>
<!-- 140084143462384&#45;&gt;140084059257648* -->
<g id="edge28" class="edge">
<title>140084143462384&#45;&gt;140084059257648*</title>
<path fill="none" stroke="black" d="M76.43,-223.25C84.21,-223.25 92.41,-223.25 100.21,-223.25"/>
<polygon fill="black" stroke="black" points="100.1,-226.75 110.1,-223.25 100.1,-219.75 100.1,-226.75"/>
</g>
</g>
</svg>
